<?xml version="1.0" standalone="no"?>
<!DOCTYPE svg PUBLIC "-//W3C//DTD SVG 20010904//EN"
 "http://www.w3.org/TR/2001/REC-SVG-20010904/DTD/svg10.dtd">
<svg version="1.0" xmlns="http://www.w3.org/2000/svg"
 width="256.000000pt" height="256.000000pt" viewBox="0 0 256.000000 256.000000"
 preserveAspectRatio="xMidYMid meet">
<metadata>
Created by potrace 1.14, written by Peter Selinger 2001-2017
</metadata>
<g transform="translate(0.000000,256.000000) scale(0.100000,-0.100000)"
fill="#000000" stroke="none">
<path d="M666 2541 c-16 -18 -18 -39 -14 -218 4 -172 7 -206 27 -262 29 -83
78 -159 143 -221 33 -32 46 -50 36 -50 -17 0 -31 -20 -86 -120 -73 -133 -57
-120 -147 -120 -88 -1 -138 -15 -188 -52 -25 -19 -48 -26 -103 -30 -146 -10
-266 -102 -314 -242 -17 -50 -19 -84 -19 -294 1 -255 9 -318 52 -412 28 -60
57 -101 109 -158 l34 -37 -1 -135 c0 -84 4 -145 11 -160 17 -35 58 -38 80 -5
l16 25 218 0 c208 0 218 -1 223 -20 7 -27 53 -37 76 -16 16 14 18 35 18 182 0
90 4 168 7 171 4 4 26 -13 49 -38 23 -25 121 -106 217 -179 96 -73 181 -138
187 -143 19 -14 61 0 68 23 6 19 15 20 229 20 209 0 224 -1 241 -20 24 -26 50
-33 75 -20 30 16 25 53 -16 110 l-35 49 28 7 c276 63 480 224 593 468 76 163
75 153 75 781 l0 560 -26 77 c-63 184 -189 335 -347 416 -91 46 -126 52 -143
23 -11 -17 -16 -17 -57 -5 -24 8 -48 11 -53 9 -4 -3 -13 3 -19 14 -23 44 -82
51 -95 10 -5 -16 -16 -19 -71 -19 -35 0 -64 4 -64 9 0 5 -7 17 -16 25 -14 14
-73 16 -498 16 -466 0 -484 -1 -500 -19z"/>
</g>
</svg>
